<svg width="1024" height="722" viewBox="0 0 1024 722" fill="none" xmlns="http://www.w3.org/2000/svg">
<rect width="1024" height="722" fill="#BD8158"/>
<path d="M244.879 386.28C235.834 386.28 227.642 384.317 220.303 380.392C213.05 376.381 207.332 370.877 203.151 363.88C199.055 356.883 197.007 348.989 197.007 340.2C197.007 331.411 199.098 323.517 203.279 316.52C207.46 309.523 213.178 304.061 220.431 300.136C227.77 296.125 235.962 294.12 245.007 294.12C252.346 294.12 259.044 295.4 265.103 297.96C271.162 300.52 276.282 304.232 280.463 309.096L269.711 319.208C263.226 312.211 255.247 308.712 245.775 308.712C239.631 308.712 234.127 310.077 229.263 312.808C224.399 315.453 220.602 319.165 217.871 323.944C215.14 328.723 213.775 334.141 213.775 340.2C213.775 346.259 215.14 351.677 217.871 356.456C220.602 361.235 224.399 364.989 229.263 367.72C234.127 370.365 239.631 371.688 245.775 371.688C255.247 371.688 263.226 368.147 269.711 361.064L280.463 371.304C276.282 376.168 271.119 379.88 264.975 382.44C258.916 385 252.218 386.28 244.879 386.28ZM336.388 386.28C327.257 386.28 319.023 384.317 311.684 380.392C304.345 376.381 298.585 370.877 294.404 363.88C290.223 356.797 288.132 348.904 288.132 340.2C288.132 331.496 290.223 323.645 294.404 316.648C298.585 309.565 304.345 304.061 311.684 300.136C319.023 296.125 327.257 294.12 336.388 294.12C345.519 294.12 353.753 296.125 361.092 300.136C368.431 304.061 374.191 309.523 378.372 316.52C382.553 323.517 384.644 331.411 384.644 340.2C384.644 348.989 382.553 356.883 378.372 363.88C374.191 370.877 368.431 376.381 361.092 380.392C353.753 384.317 345.519 386.28 336.388 386.28ZM336.388 371.688C342.361 371.688 347.737 370.365 352.516 367.72C357.295 364.989 361.049 361.235 363.78 356.456C366.511 351.592 367.876 346.173 367.876 340.2C367.876 334.227 366.511 328.851 363.78 324.072C361.049 319.208 357.295 315.453 352.516 312.808C347.737 310.077 342.361 308.712 336.388 308.712C330.415 308.712 325.039 310.077 320.26 312.808C315.481 315.453 311.727 319.208 308.996 324.072C306.265 328.851 304.9 334.227 304.9 340.2C304.9 346.173 306.265 351.592 308.996 356.456C311.727 361.235 315.481 364.989 320.26 367.72C325.039 370.365 330.415 371.688 336.388 371.688ZM440.81 386.28C428.437 386.28 418.794 382.824 411.882 375.912C404.97 368.915 401.514 358.931 401.514 345.96V295.4H418.154V345.32C418.154 362.899 425.749 371.688 440.938 371.688C456.042 371.688 463.594 362.899 463.594 345.32V295.4H479.978V345.96C479.978 358.931 476.522 368.915 469.61 375.912C462.783 382.824 453.183 386.28 440.81 386.28ZM561.906 385L543.602 358.76C542.834 358.845 541.682 358.888 540.146 358.888H519.922V385H503.282V295.4H540.146C547.911 295.4 554.653 296.68 560.37 299.24C566.173 301.8 570.61 305.469 573.682 310.248C576.754 315.027 578.29 320.701 578.29 327.272C578.29 334.013 576.626 339.816 573.298 344.68C570.055 349.544 565.362 353.171 559.218 355.56L579.826 385H561.906ZM561.522 327.272C561.522 321.555 559.645 317.16 555.89 314.088C552.135 311.016 546.631 309.48 539.378 309.48H519.922V345.192H539.378C546.631 345.192 552.135 343.656 555.89 340.584C559.645 337.427 561.522 332.989 561.522 327.272ZM624.683 386.28C617.771 386.28 611.072 385.299 604.587 383.336C598.187 381.373 593.11 378.771 589.355 375.528L595.115 362.6C598.784 365.501 603.264 367.891 608.555 369.768C613.931 371.56 619.307 372.456 624.683 372.456C631.339 372.456 636.288 371.389 639.531 369.256C642.859 367.123 644.523 364.307 644.523 360.808C644.523 358.248 643.584 356.157 641.707 354.536C639.915 352.829 637.611 351.507 634.795 350.568C631.979 349.629 628.139 348.563 623.275 347.368C616.448 345.747 610.902 344.125 606.635 342.504C602.454 340.883 598.827 338.365 595.755 334.952C592.768 331.453 591.275 326.76 591.275 320.872C591.275 315.923 592.598 311.443 595.243 307.432C597.974 303.336 602.027 300.093 607.403 297.704C612.864 295.315 619.52 294.12 627.371 294.12C632.832 294.12 638.208 294.803 643.499 296.168C648.79 297.533 653.355 299.496 657.195 302.056L651.947 314.984C648.022 312.68 643.926 310.931 639.659 309.736C635.392 308.541 631.254 307.944 627.243 307.944C620.672 307.944 615.766 309.053 612.523 311.272C609.366 313.491 607.787 316.435 607.787 320.104C607.787 322.664 608.683 324.755 610.475 326.376C612.352 327.997 614.699 329.277 617.515 330.216C620.331 331.155 624.171 332.221 629.035 333.416C635.691 334.952 641.152 336.573 645.419 338.28C649.686 339.901 653.312 342.419 656.299 345.832C659.371 349.245 660.907 353.853 660.907 359.656C660.907 364.605 659.542 369.085 656.811 373.096C654.166 377.107 650.112 380.307 644.651 382.696C639.19 385.085 632.534 386.28 624.683 386.28ZM744.607 371.048V385H677.407V295.4H742.815V309.352H694.047V332.648H737.311V346.344H694.047V371.048H744.607ZM790.933 386.28C784.021 386.28 777.322 385.299 770.837 383.336C764.437 381.373 759.36 378.771 755.605 375.528L761.365 362.6C765.034 365.501 769.514 367.891 774.805 369.768C780.181 371.56 785.557 372.456 790.933 372.456C797.589 372.456 802.538 371.389 805.781 369.256C809.109 367.123 810.773 364.307 810.773 360.808C810.773 358.248 809.834 356.157 807.957 354.536C806.165 352.829 803.861 351.507 801.045 350.568C798.229 349.629 794.389 348.563 789.525 347.368C782.698 345.747 777.152 344.125 772.885 342.504C768.704 340.883 765.077 338.365 762.005 334.952C759.018 331.453 757.525 326.76 757.525 320.872C757.525 315.923 758.848 311.443 761.493 307.432C764.224 303.336 768.277 300.093 773.653 297.704C779.114 295.315 785.77 294.12 793.621 294.12C799.082 294.12 804.458 294.803 809.749 296.168C815.04 297.533 819.605 299.496 823.445 302.056L818.197 314.984C814.272 312.68 810.176 310.931 805.909 309.736C801.642 308.541 797.504 307.944 793.493 307.944C786.922 307.944 782.016 309.053 778.773 311.272C775.616 313.491 774.037 316.435 774.037 320.104C774.037 322.664 774.933 324.755 776.725 326.376C778.602 327.997 780.949 329.277 783.765 330.216C786.581 331.155 790.421 332.221 795.285 333.416C801.941 334.952 807.402 336.573 811.669 338.28C815.936 339.901 819.562 342.419 822.549 345.832C825.621 349.245 827.157 353.853 827.157 359.656C827.157 364.605 825.792 369.085 823.061 373.096C820.416 377.107 816.362 380.307 810.901 382.696C805.44 385.085 798.784 386.28 790.933 386.28Z" fill="white"/>
</svg>
