<svg width="1024" height="722" viewBox="0 0 1024 722" fill="none" xmlns="http://www.w3.org/2000/svg">
<rect width="1024" height="722" fill="#BD8158"/>
<path d="M232.545 368.048V382H165.345V292.4H230.753V306.352H181.985V329.648H225.249V343.344H181.985V368.048H232.545ZM251.095 292.4H267.735V367.92H314.583V382H251.095V292.4ZM394.92 368.048V382H327.72V292.4H393.128V306.352H344.36V329.648H387.624V343.344H344.36V368.048H394.92ZM495.774 382L495.646 322.608L466.206 371.76H458.782L429.342 323.376V382H413.47V292.4H427.166L462.75 351.792L497.694 292.4H511.39L511.518 382H495.774ZM602.92 368.048V382H535.72V292.4H601.128V306.352H552.36V329.648H595.624V343.344H552.36V368.048H602.92ZM701.086 292.4V382H687.39L637.982 321.328V382H621.47V292.4H635.166L684.574 353.072V292.4H701.086ZM743.271 306.48H713.575V292.4H789.607V306.48H759.911V382H743.271V306.48ZM828.996 383.28C822.084 383.28 815.385 382.299 808.9 380.336C802.5 378.373 797.422 375.771 793.668 372.528L799.428 359.6C803.097 362.501 807.577 364.891 812.868 366.768C818.244 368.56 823.62 369.456 828.996 369.456C835.652 369.456 840.601 368.389 843.844 366.256C847.172 364.123 848.836 361.307 848.836 357.808C848.836 355.248 847.897 353.157 846.02 351.536C844.228 349.829 841.924 348.507 839.108 347.568C836.292 346.629 832.452 345.563 827.588 344.368C820.761 342.747 815.214 341.125 810.948 339.504C806.766 337.883 803.14 335.365 800.068 331.952C797.081 328.453 795.588 323.76 795.588 317.872C795.588 312.923 796.91 308.443 799.556 304.432C802.286 300.336 806.34 297.093 811.716 294.704C817.177 292.315 823.833 291.12 831.684 291.12C837.145 291.12 842.521 291.803 847.812 293.168C853.102 294.533 857.668 296.496 861.507 299.056L856.26 311.984C852.334 309.68 848.238 307.931 843.972 306.736C839.705 305.541 835.566 304.944 831.556 304.944C824.985 304.944 820.078 306.053 816.836 308.272C813.678 310.491 812.1 313.435 812.1 317.104C812.1 319.664 812.996 321.755 814.788 323.376C816.665 324.997 819.012 326.277 821.828 327.216C824.644 328.155 828.484 329.221 833.348 330.416C840.004 331.952 845.465 333.573 849.732 335.28C853.998 336.901 857.625 339.419 860.612 342.832C863.684 346.245 865.22 350.853 865.22 356.656C865.22 361.605 863.854 366.085 861.124 370.096C858.478 374.107 854.425 377.307 848.964 379.696C843.502 382.085 836.846 383.28 828.996 383.28Z" fill="white"/>
</svg>
