<svg width="1024" height="722" viewBox="0 0 1024 722" fill="none" xmlns="http://www.w3.org/2000/svg">
<rect width="1024" height="722" fill="#BD8158"/>
<rect y="694" width="1024" height="28" fill="#54534F"/>
<path d="M186.68 241.8C180.973 241.8 175.827 240.573 171.24 238.12C166.653 235.613 163.053 232.173 160.44 227.8C157.827 223.373 156.52 218.44 156.52 213C156.52 207.56 157.827 202.653 160.44 198.28C163.053 193.853 166.653 190.413 171.24 187.96C175.827 185.453 180.973 184.2 186.68 184.2C192.387 184.2 197.533 185.453 202.12 187.96C206.707 190.413 210.307 193.827 212.92 198.2C215.533 202.573 216.84 207.507 216.84 213C216.84 218.493 215.533 223.427 212.92 227.8C210.307 232.173 206.707 235.613 202.12 238.12C197.533 240.573 192.387 241.8 186.68 241.8ZM186.68 232.68C190.413 232.68 193.773 231.853 196.76 230.2C199.747 228.493 202.093 226.147 203.8 223.16C205.507 220.12 206.36 216.733 206.36 213C206.36 209.267 205.507 205.907 203.8 202.92C202.093 199.88 199.747 197.533 196.76 195.88C193.773 194.173 190.413 193.32 186.68 193.32C182.947 193.32 179.587 194.173 176.6 195.88C173.613 197.533 171.267 199.88 169.56 202.92C167.853 205.907 167 209.267 167 213C167 216.733 167.853 220.12 169.56 223.16C171.267 226.147 173.613 228.493 176.6 230.2C179.587 231.853 182.947 232.68 186.68 232.68ZM238.443 193.8H219.883V185H267.403V193.8H248.843V241H238.443V193.8ZM324.968 185V241H314.568V217H285.608V241H275.208V185H285.608V208.12H314.568V185H324.968ZM381.973 232.28V241H339.973V185H380.853V193.72H350.373V208.28H377.413V216.84H350.373V232.28H381.973ZM430.207 241L418.767 224.6C418.287 224.653 417.567 224.68 416.607 224.68H403.967V241H393.567V185H416.607C421.46 185 425.674 185.8 429.247 187.4C432.874 189 435.647 191.293 437.567 194.28C439.487 197.267 440.447 200.813 440.447 204.92C440.447 209.133 439.407 212.76 437.327 215.8C435.3 218.84 432.367 221.107 428.527 222.6L441.407 241H430.207ZM429.967 204.92C429.967 201.347 428.794 198.6 426.447 196.68C424.1 194.76 420.66 193.8 416.127 193.8H403.967V216.12H416.127C420.66 216.12 424.1 215.16 426.447 213.24C428.794 211.267 429.967 208.493 429.967 204.92Z" fill="white"/>
</svg>
