<svg width="1024" height="722" viewBox="0 0 1024 722" fill="none" xmlns="http://www.w3.org/2000/svg">
<rect width="1024" height="722" fill="#BD8158"/>
<path d="M215.781 382L197.477 355.76C196.709 355.845 195.557 355.888 194.021 355.888H173.797V382H157.157V292.4H194.021C201.786 292.4 208.528 293.68 214.245 296.24C220.048 298.8 224.485 302.469 227.557 307.248C230.629 312.027 232.165 317.701 232.165 324.272C232.165 331.013 230.501 336.816 227.173 341.68C223.93 346.544 219.237 350.171 213.093 352.56L233.701 382H215.781ZM215.397 324.272C215.397 318.555 213.52 314.16 209.765 311.088C206.01 308.016 200.506 306.48 193.253 306.48H173.797V342.192H193.253C200.506 342.192 206.01 340.656 209.765 337.584C213.52 334.427 215.397 329.989 215.397 324.272ZM317.982 368.048V382H250.782V292.4H316.19V306.352H267.422V329.648H310.686V343.344H267.422V368.048H317.982ZM364.308 383.28C357.396 383.28 350.697 382.299 344.212 380.336C337.812 378.373 332.735 375.771 328.98 372.528L334.74 359.6C338.409 362.501 342.889 364.891 348.18 366.768C353.556 368.56 358.932 369.456 364.308 369.456C370.964 369.456 375.913 368.389 379.156 366.256C382.484 364.123 384.148 361.307 384.148 357.808C384.148 355.248 383.209 353.157 381.332 351.536C379.54 349.829 377.236 348.507 374.42 347.568C371.604 346.629 367.764 345.563 362.9 344.368C356.073 342.747 350.527 341.125 346.26 339.504C342.079 337.883 338.452 335.365 335.38 331.952C332.393 328.453 330.9 323.76 330.9 317.872C330.9 312.923 332.223 308.443 334.868 304.432C337.599 300.336 341.652 297.093 347.028 294.704C352.489 292.315 359.145 291.12 366.996 291.12C372.457 291.12 377.833 291.803 383.124 293.168C388.415 294.533 392.98 296.496 396.82 299.056L391.572 311.984C387.647 309.68 383.551 307.931 379.284 306.736C375.017 305.541 370.879 304.944 366.868 304.944C360.297 304.944 355.391 306.053 352.148 308.272C348.991 310.491 347.412 313.435 347.412 317.104C347.412 319.664 348.308 321.755 350.1 323.376C351.977 324.997 354.324 326.277 357.14 327.216C359.956 328.155 363.796 329.221 368.66 330.416C375.316 331.952 380.777 333.573 385.044 335.28C389.311 336.901 392.937 339.419 395.924 342.832C398.996 346.245 400.532 350.853 400.532 356.656C400.532 361.605 399.167 366.085 396.436 370.096C393.791 374.107 389.737 377.307 384.276 379.696C378.815 382.085 372.159 383.28 364.308 383.28ZM484.232 368.048V382H417.032V292.4H482.44V306.352H433.672V329.648H476.936V343.344H433.672V368.048H484.232ZM560.894 361.264H516.094L507.262 382H490.11L530.43 292.4H546.814L587.262 382H569.854L560.894 361.264ZM555.39 348.208L538.494 309.04L521.726 348.208H555.39ZM657.281 382L638.977 355.76C638.209 355.845 637.057 355.888 635.521 355.888H615.297V382H598.657V292.4H635.521C643.286 292.4 650.028 293.68 655.745 296.24C661.548 298.8 665.985 302.469 669.057 307.248C672.129 312.027 673.665 317.701 673.665 324.272C673.665 331.013 672.001 336.816 668.673 341.68C665.43 346.544 660.737 350.171 654.593 352.56L675.201 382H657.281ZM656.897 324.272C656.897 318.555 655.02 314.16 651.265 311.088C647.51 308.016 642.006 306.48 634.753 306.48H615.297V342.192H634.753C642.006 342.192 647.51 340.656 651.265 337.584C655.02 334.427 656.897 329.989 656.897 324.272ZM733.754 383.28C724.709 383.28 716.517 381.317 709.178 377.392C701.925 373.381 696.207 367.877 692.026 360.88C687.93 353.883 685.882 345.989 685.882 337.2C685.882 328.411 687.973 320.517 692.154 313.52C696.335 306.523 702.053 301.061 709.306 297.136C716.645 293.125 724.837 291.12 733.882 291.12C741.221 291.12 747.919 292.4 753.978 294.96C760.037 297.52 765.157 301.232 769.338 306.096L758.586 316.208C752.101 309.211 744.122 305.712 734.65 305.712C728.506 305.712 723.002 307.077 718.138 309.808C713.274 312.453 709.477 316.165 706.746 320.944C704.015 325.723 702.65 331.141 702.65 337.2C702.65 343.259 704.015 348.677 706.746 353.456C709.477 358.235 713.274 361.989 718.138 364.72C723.002 367.365 728.506 368.688 734.65 368.688C744.122 368.688 752.101 365.147 758.586 358.064L769.338 368.304C765.157 373.168 759.994 376.88 753.85 379.44C747.791 382 741.093 383.28 733.754 383.28ZM864.898 292.4V382H848.258V343.6H801.922V382H785.282V292.4H801.922V329.392H848.258V292.4H864.898Z" fill="white"/>
</svg>
