<svg width="1024" height="722" viewBox="0 0 1024 722" fill="none" xmlns="http://www.w3.org/2000/svg">
<rect width="1024" height="722" fill="#BD8158"/>
<rect y="694" width="1024" height="28" fill="#54534F"/>
<path d="M197.16 241L185.72 224.6C185.24 224.653 184.52 224.68 183.56 224.68H170.92V241H160.52V185H183.56C188.413 185 192.627 185.8 196.2 187.4C199.827 189 202.6 191.293 204.52 194.28C206.44 197.267 207.4 200.813 207.4 204.92C207.4 209.133 206.36 212.76 204.28 215.8C202.253 218.84 199.32 221.107 195.48 222.6L208.36 241H197.16ZM196.92 204.92C196.92 201.347 195.747 198.6 193.4 196.68C191.053 194.76 187.613 193.8 183.08 193.8H170.92V216.12H183.08C187.613 216.12 191.053 215.16 193.4 213.24C195.747 211.267 196.92 208.493 196.92 204.92ZM261.036 232.28V241H219.036V185H259.916V193.72H229.436V208.28H256.476V216.84H229.436V232.28H261.036ZM323.048 185L298.648 241H288.408L263.928 185H275.208L293.848 228.2L312.648 185H323.048ZM328.958 185H339.358V241H328.958V185ZM396.504 232.28V241H354.504V185H395.384V193.72H364.904V208.28H391.944V216.84H364.904V232.28H396.504ZM489.157 185L470.597 241H459.557L445.717 199.56L431.637 241H420.517L401.957 185H412.757L426.677 227.56L441.157 185H450.757L464.917 227.8L479.237 185H489.157ZM514.989 241.8C510.669 241.8 506.483 241.187 502.429 239.96C498.429 238.733 495.256 237.107 492.909 235.08L496.509 227C498.803 228.813 501.603 230.307 504.909 231.48C508.269 232.6 511.629 233.16 514.989 233.16C519.149 233.16 522.243 232.493 524.269 231.16C526.349 229.827 527.389 228.067 527.389 225.88C527.389 224.28 526.803 222.973 525.629 221.96C524.509 220.893 523.069 220.067 521.309 219.48C519.549 218.893 517.149 218.227 514.109 217.48C509.843 216.467 506.376 215.453 503.709 214.44C501.096 213.427 498.829 211.853 496.909 209.72C495.043 207.533 494.109 204.6 494.109 200.92C494.109 197.827 494.936 195.027 496.589 192.52C498.296 189.96 500.829 187.933 504.189 186.44C507.603 184.947 511.763 184.2 516.669 184.2C520.083 184.2 523.443 184.627 526.749 185.48C530.056 186.333 532.909 187.56 535.309 189.16L532.029 197.24C529.576 195.8 527.016 194.707 524.349 193.96C521.683 193.213 519.096 192.84 516.589 192.84C512.483 192.84 509.416 193.533 507.389 194.92C505.416 196.307 504.429 198.147 504.429 200.44C504.429 202.04 504.989 203.347 506.109 204.36C507.283 205.373 508.749 206.173 510.509 206.76C512.269 207.347 514.669 208.013 517.709 208.76C521.869 209.72 525.283 210.733 527.949 211.8C530.616 212.813 532.883 214.387 534.749 216.52C536.669 218.653 537.629 221.533 537.629 225.16C537.629 228.253 536.776 231.053 535.069 233.56C533.416 236.067 530.883 238.067 527.469 239.56C524.056 241.053 519.896 241.8 514.989 241.8Z" fill="white"/>
</svg>
