<svg width="1024" height="722" viewBox="0 0 1024 722" fill="none" xmlns="http://www.w3.org/2000/svg">
<rect width="1024" height="722" fill="#BD8158"/>
<rect y="694" width="1024" height="28" fill="#54534F"/>
<path d="M171.88 193.8H153.32V185H200.84V193.8H182.28V241H171.88V193.8ZM258.405 185V241H248.005V217H219.045V241H208.645V185H219.045V208.12H248.005V185H258.405ZM299.571 241.8C293.864 241.8 288.717 240.573 284.131 238.12C279.544 235.613 275.944 232.173 273.331 227.8C270.717 223.373 269.411 218.44 269.411 213C269.411 207.56 270.717 202.653 273.331 198.28C275.944 193.853 279.544 190.413 284.131 187.96C288.717 185.453 293.864 184.2 299.571 184.2C305.277 184.2 310.424 185.453 315.011 187.96C319.597 190.413 323.197 193.827 325.811 198.2C328.424 202.573 329.731 207.507 329.731 213C329.731 218.493 328.424 223.427 325.811 227.8C323.197 232.173 319.597 235.613 315.011 238.12C310.424 240.573 305.277 241.8 299.571 241.8ZM299.571 232.68C303.304 232.68 306.664 231.853 309.651 230.2C312.637 228.493 314.984 226.147 316.691 223.16C318.397 220.12 319.251 216.733 319.251 213C319.251 209.267 318.397 205.907 316.691 202.92C314.984 199.88 312.637 197.533 309.651 195.88C306.664 194.173 303.304 193.32 299.571 193.32C295.837 193.32 292.477 194.173 289.491 195.88C286.504 197.533 284.157 199.88 282.451 202.92C280.744 205.907 279.891 209.267 279.891 213C279.891 216.733 280.744 220.12 282.451 223.16C284.157 226.147 286.504 228.493 289.491 230.2C292.477 231.853 295.837 232.68 299.571 232.68ZM364.834 241.8C357.101 241.8 351.074 239.64 346.754 235.32C342.434 230.947 340.274 224.707 340.274 216.6V185H350.674V216.2C350.674 227.187 355.421 232.68 364.914 232.68C374.354 232.68 379.074 227.187 379.074 216.2V185H389.314V216.6C389.314 224.707 387.154 230.947 382.834 235.32C378.568 239.64 372.568 241.8 364.834 241.8ZM442.119 212.36H451.959V234.68C449.079 236.973 445.719 238.733 441.879 239.96C438.039 241.187 434.093 241.8 430.039 241.8C424.333 241.8 419.186 240.573 414.599 238.12C410.013 235.613 406.413 232.173 403.799 227.8C401.186 223.427 399.879 218.493 399.879 213C399.879 207.507 401.186 202.573 403.799 198.2C406.413 193.827 410.013 190.413 414.599 187.96C419.239 185.453 424.439 184.2 430.199 184.2C434.893 184.2 439.159 184.973 442.999 186.52C446.839 188.067 450.066 190.333 452.679 193.32L446.119 199.72C441.853 195.453 436.706 193.32 430.679 193.32C426.733 193.32 423.213 194.147 420.119 195.8C417.079 197.453 414.679 199.773 412.919 202.76C411.213 205.747 410.359 209.16 410.359 213C410.359 216.733 411.213 220.093 412.919 223.08C414.679 226.067 417.079 228.413 420.119 230.12C423.213 231.827 426.706 232.68 430.599 232.68C434.973 232.68 438.813 231.72 442.119 229.8V212.36ZM515.436 185V241H505.036V217H476.076V241H465.676V185H476.076V208.12H505.036V185H515.436ZM541.802 193.8H523.242V185H570.762V193.8H552.202V241H541.802V193.8ZM595.38 241.8C591.06 241.8 586.873 241.187 582.82 239.96C578.82 238.733 575.647 237.107 573.3 235.08L576.9 227C579.193 228.813 581.993 230.307 585.3 231.48C588.66 232.6 592.02 233.16 595.38 233.16C599.54 233.16 602.633 232.493 604.66 231.16C606.74 229.827 607.78 228.067 607.78 225.88C607.78 224.28 607.193 222.973 606.02 221.96C604.9 220.893 603.46 220.067 601.7 219.48C599.94 218.893 597.54 218.227 594.5 217.48C590.233 216.467 586.767 215.453 584.1 214.44C581.487 213.427 579.22 211.853 577.3 209.72C575.433 207.533 574.5 204.6 574.5 200.92C574.5 197.827 575.327 195.027 576.98 192.52C578.687 189.96 581.22 187.933 584.58 186.44C587.993 184.947 592.153 184.2 597.06 184.2C600.473 184.2 603.833 184.627 607.14 185.48C610.447 186.333 613.3 187.56 615.7 189.16L612.42 197.24C609.967 195.8 607.407 194.707 604.74 193.96C602.073 193.213 599.487 192.84 596.98 192.84C592.873 192.84 589.807 193.533 587.78 194.92C585.807 196.307 584.82 198.147 584.82 200.44C584.82 202.04 585.38 203.347 586.5 204.36C587.673 205.373 589.14 206.173 590.9 206.76C592.66 207.347 595.06 208.013 598.1 208.76C602.26 209.72 605.673 210.733 608.34 211.8C611.007 212.813 613.273 214.387 615.14 216.52C617.06 218.653 618.02 221.533 618.02 225.16C618.02 228.253 617.167 231.053 615.46 233.56C613.807 236.067 611.273 238.067 607.86 239.56C604.447 241.053 600.287 241.8 595.38 241.8Z" fill="white"/>
</svg>
